<svg version="1.2" xmlns="http://www.w3.org/2000/svg" viewBox="0 0 1080 1080" width="1080" height="1080">
	<style>
		.s0 { opacity: 1;fill: #000000 } 
	</style>
	<g id="Shape 1 copy">
		<path id="Path 2" class="s0" d="m353 346v91h181v-182h-181z"/>
	</g>
	<g id="Shape 1 copy 2">
		<path id="Path 2" class="s0" d="m353 346v91h181v-182h-181z"/>
	</g>
	<g id="Shape 1 copy 3">
		<path id="Path 2" class="s0" d="m353 539.5v90.5h181v-181h-181z"/>
	</g>
	<g id="Shape 1 copy 4">
		<path id="Path 2" class="s0" d="m546 346v91h182v-182h-182z"/>
	</g>
	<g id="Shape 1 copy 5">
		<path id="Path 2" class="s0" d="m546 539.5v90.5h182v-181h-182z"/>
	</g>
	<g id="Shape 1 copy 6">
		<path id="Path 2" class="s0" d="m546 539.5v90.5h182v-181h-182z"/>
	</g>
	<g id="Shape 1 copy 8">
		<path id="Path 2" class="s0" d="m353 733v91h181v-182h-181z"/>
	</g>
	<g id="Shape 1 copy 9">
		<path id="Path 1" class="s0" d="m159 733v91h182v-182h-182z"/>
	</g>
	<g id="Shape 1 copy 7">
		<path id="Path 2" class="s0" d="m546 733v91h182v-182h-182z"/>
	</g>
	<g id="Shape 1 copy 10">
		<path id="Path 2" class="s0" d="m546 539.5v90.5h182v-181h-182z"/>
	</g>
	<g id="Shape 1 copy 11">
		<path id="Path 2" class="s0" d="m546 733v91h182v-182h-182z"/>
	</g>
	<g id="Shape 1 copy 12">
		<path id="Path 2" class="s0" d="m740 539.5v90.5h181v-181h-181z"/>
	</g>
	<g id="Shape 1 copy 13">
		<path id="Path 2" class="s0" d="m740 733v91h181v-182h-181z"/>
	</g>
</svg>